<mxfile host="app.diagrams.net" agent="Mozilla/5.0 (Windows NT 10.0; Win64; x64; rv:136.0) Gecko/20100101 Firefox/136.0" version="26.1.1">
  <diagram name="Pagina-1" id="sB1na0tYlVMsJSMKFojT">
    <mxGraphModel dx="1106" dy="754" grid="1" gridSize="10" guides="1" tooltips="1" connect="1" arrows="1" fold="1" page="1" pageScale="1" pageWidth="8268" pageHeight="1169" math="0" shadow="0">
      <root>
        <mxCell id="0" />
        <mxCell id="1" parent="0" />
        <mxCell id="bJIv3xZbIVNAvdQTSSaf-31" value="" style="rounded=0;whiteSpace=wrap;html=1;dashed=1;dashPattern=12 12;fillColor=none;" vertex="1" parent="1">
          <mxGeometry x="120" y="40" width="480" height="480" as="geometry" />
        </mxCell>
        <mxCell id="bJIv3xZbIVNAvdQTSSaf-36" value="" style="rounded=0;whiteSpace=wrap;html=1;dashed=1;dashPattern=12 12;fillColor=none;" vertex="1" parent="1">
          <mxGeometry x="640" y="40" width="480" height="480" as="geometry" />
        </mxCell>
        <mxCell id="bJIv3xZbIVNAvdQTSSaf-1" value="ROM 8:4" style="rounded=0;whiteSpace=wrap;html=1;" vertex="1" parent="1">
          <mxGeometry x="200" y="80" width="120" height="200" as="geometry" />
        </mxCell>
        <mxCell id="bJIv3xZbIVNAvdQTSSaf-2" value="" style="endArrow=classic;html=1;rounded=0;" edge="1" parent="1">
          <mxGeometry width="50" height="50" relative="1" as="geometry">
            <mxPoint x="160" y="160" as="sourcePoint" />
            <mxPoint x="200" y="160" as="targetPoint" />
          </mxGeometry>
        </mxCell>
        <mxCell id="bJIv3xZbIVNAvdQTSSaf-4" value="clock" style="text;html=1;align=right;verticalAlign=middle;whiteSpace=wrap;rounded=0;fontSize=8;" vertex="1" parent="1">
          <mxGeometry x="170" y="140" width="30" height="20" as="geometry" />
        </mxCell>
        <mxCell id="bJIv3xZbIVNAvdQTSSaf-5" value="" style="endArrow=classic;html=1;rounded=0;" edge="1" parent="1">
          <mxGeometry width="50" height="50" relative="1" as="geometry">
            <mxPoint x="450" y="440" as="sourcePoint" />
            <mxPoint x="200" y="200" as="targetPoint" />
            <Array as="points">
              <mxPoint x="450" y="460" />
              <mxPoint x="140" y="460" />
              <mxPoint x="140" y="200" />
            </Array>
          </mxGeometry>
        </mxCell>
        <mxCell id="bJIv3xZbIVNAvdQTSSaf-6" value="read" style="text;html=1;align=right;verticalAlign=middle;whiteSpace=wrap;rounded=0;fontSize=8;" vertex="1" parent="1">
          <mxGeometry x="170" y="180" width="30" height="20" as="geometry" />
        </mxCell>
        <mxCell id="bJIv3xZbIVNAvdQTSSaf-7" value="COUNTER_8" style="rounded=0;whiteSpace=wrap;html=1;" vertex="1" parent="1">
          <mxGeometry x="200" y="360" width="120" height="80" as="geometry" />
        </mxCell>
        <mxCell id="bJIv3xZbIVNAvdQTSSaf-8" value="" style="shape=flexArrow;endArrow=classic;html=1;rounded=0;entryX=0.5;entryY=1;entryDx=0;entryDy=0;exitX=0.5;exitY=0;exitDx=0;exitDy=0;endSize=3;startSize=3;width=5;startWidth=10;endWidth=10;" edge="1" parent="1" source="bJIv3xZbIVNAvdQTSSaf-7" target="bJIv3xZbIVNAvdQTSSaf-1">
          <mxGeometry width="50" height="50" relative="1" as="geometry">
            <mxPoint x="260" y="360" as="sourcePoint" />
            <mxPoint x="310" y="310" as="targetPoint" />
          </mxGeometry>
        </mxCell>
        <mxCell id="bJIv3xZbIVNAvdQTSSaf-9" value="3" style="edgeLabel;html=1;align=center;verticalAlign=middle;resizable=0;points=[];" vertex="1" connectable="0" parent="bJIv3xZbIVNAvdQTSSaf-8">
          <mxGeometry relative="1" as="geometry">
            <mxPoint as="offset" />
          </mxGeometry>
        </mxCell>
        <mxCell id="bJIv3xZbIVNAvdQTSSaf-11" value="address" style="text;html=1;align=center;verticalAlign=middle;whiteSpace=wrap;rounded=0;fontSize=8;" vertex="1" parent="1">
          <mxGeometry x="260" y="280" width="60" height="20" as="geometry" />
        </mxCell>
        <mxCell id="bJIv3xZbIVNAvdQTSSaf-12" value="output" style="text;html=1;align=center;verticalAlign=middle;whiteSpace=wrap;rounded=0;fontSize=8;" vertex="1" parent="1">
          <mxGeometry x="210" y="340" width="50" height="20" as="geometry" />
        </mxCell>
        <mxCell id="bJIv3xZbIVNAvdQTSSaf-13" value="CONTROL UNIT" style="whiteSpace=wrap;html=1;aspect=fixed;" vertex="1" parent="1">
          <mxGeometry x="440" y="320" width="120" height="120" as="geometry" />
        </mxCell>
        <mxCell id="bJIv3xZbIVNAvdQTSSaf-14" value="" style="endArrow=classic;html=1;rounded=0;" edge="1" parent="1">
          <mxGeometry width="50" height="50" relative="1" as="geometry">
            <mxPoint x="320" y="370" as="sourcePoint" />
            <mxPoint x="440" y="370" as="targetPoint" />
          </mxGeometry>
        </mxCell>
        <mxCell id="bJIv3xZbIVNAvdQTSSaf-15" value="" style="endArrow=classic;html=1;rounded=0;" edge="1" parent="1">
          <mxGeometry width="50" height="50" relative="1" as="geometry">
            <mxPoint x="440" y="399.86" as="sourcePoint" />
            <mxPoint x="320" y="400" as="targetPoint" />
          </mxGeometry>
        </mxCell>
        <mxCell id="bJIv3xZbIVNAvdQTSSaf-16" value="" style="endArrow=classic;html=1;rounded=0;" edge="1" parent="1">
          <mxGeometry width="50" height="50" relative="1" as="geometry">
            <mxPoint x="320" y="430" as="sourcePoint" />
            <mxPoint x="440" y="430" as="targetPoint" />
          </mxGeometry>
        </mxCell>
        <mxCell id="bJIv3xZbIVNAvdQTSSaf-17" value="counter_Q" style="text;html=1;align=right;verticalAlign=middle;whiteSpace=wrap;rounded=0;fontSize=8;" vertex="1" parent="1">
          <mxGeometry x="390" y="350" width="50" height="20" as="geometry" />
        </mxCell>
        <mxCell id="bJIv3xZbIVNAvdQTSSaf-18" value="U&lt;sub&gt;max&lt;/sub&gt;" style="text;html=1;align=left;verticalAlign=middle;whiteSpace=wrap;rounded=0;fontSize=8;" vertex="1" parent="1">
          <mxGeometry x="320" y="350" width="30" height="20" as="geometry" />
        </mxCell>
        <mxCell id="bJIv3xZbIVNAvdQTSSaf-19" value="counter_enable" style="text;html=1;align=right;verticalAlign=middle;whiteSpace=wrap;rounded=0;fontSize=8;" vertex="1" parent="1">
          <mxGeometry x="380" y="380" width="60" height="20" as="geometry" />
        </mxCell>
        <mxCell id="bJIv3xZbIVNAvdQTSSaf-20" value="counter_reset" style="text;html=1;align=right;verticalAlign=middle;whiteSpace=wrap;rounded=0;fontSize=8;" vertex="1" parent="1">
          <mxGeometry x="380" y="410" width="60" height="20" as="geometry" />
        </mxCell>
        <mxCell id="bJIv3xZbIVNAvdQTSSaf-21" value="enable" style="text;html=1;align=left;verticalAlign=middle;whiteSpace=wrap;rounded=0;fontSize=8;" vertex="1" parent="1">
          <mxGeometry x="320" y="380" width="30" height="20" as="geometry" />
        </mxCell>
        <mxCell id="bJIv3xZbIVNAvdQTSSaf-22" value="reset" style="text;html=1;align=left;verticalAlign=middle;whiteSpace=wrap;rounded=0;fontSize=8;" vertex="1" parent="1">
          <mxGeometry x="320" y="410" width="30" height="20" as="geometry" />
        </mxCell>
        <mxCell id="bJIv3xZbIVNAvdQTSSaf-23" value="clock" style="text;html=1;align=center;verticalAlign=middle;whiteSpace=wrap;rounded=0;fontSize=8;" vertex="1" parent="1">
          <mxGeometry x="475" y="480" width="30" height="20" as="geometry" />
        </mxCell>
        <mxCell id="bJIv3xZbIVNAvdQTSSaf-24" value="" style="endArrow=classic;html=1;rounded=0;" edge="1" parent="1">
          <mxGeometry width="50" height="50" relative="1" as="geometry">
            <mxPoint x="490" y="480" as="sourcePoint" />
            <mxPoint x="490" y="440" as="targetPoint" />
          </mxGeometry>
        </mxCell>
        <mxCell id="bJIv3xZbIVNAvdQTSSaf-25" value="" style="endArrow=classic;html=1;rounded=0;" edge="1" parent="1">
          <mxGeometry width="50" height="50" relative="1" as="geometry">
            <mxPoint x="520" y="480" as="sourcePoint" />
            <mxPoint x="520" y="440" as="targetPoint" />
          </mxGeometry>
        </mxCell>
        <mxCell id="bJIv3xZbIVNAvdQTSSaf-26" value="" style="endArrow=classic;html=1;rounded=0;" edge="1" parent="1">
          <mxGeometry width="50" height="50" relative="1" as="geometry">
            <mxPoint x="550" y="480" as="sourcePoint" />
            <mxPoint x="550" y="440" as="targetPoint" />
          </mxGeometry>
        </mxCell>
        <mxCell id="bJIv3xZbIVNAvdQTSSaf-27" value="rom_read" style="text;html=1;align=right;verticalAlign=middle;whiteSpace=wrap;rounded=0;fontSize=8;" vertex="1" parent="1">
          <mxGeometry x="390" y="440" width="60" height="20" as="geometry" />
        </mxCell>
        <mxCell id="bJIv3xZbIVNAvdQTSSaf-28" value="reset" style="text;html=1;align=center;verticalAlign=middle;whiteSpace=wrap;rounded=0;fontSize=8;" vertex="1" parent="1">
          <mxGeometry x="505" y="480" width="30" height="20" as="geometry" />
        </mxCell>
        <mxCell id="bJIv3xZbIVNAvdQTSSaf-29" value="start" style="text;html=1;align=center;verticalAlign=middle;whiteSpace=wrap;rounded=0;fontSize=8;" vertex="1" parent="1">
          <mxGeometry x="535" y="480" width="30" height="20" as="geometry" />
        </mxCell>
        <mxCell id="bJIv3xZbIVNAvdQTSSaf-30" value="" style="shape=flexArrow;endArrow=classic;html=1;rounded=0;exitX=1;exitY=0.5;exitDx=0;exitDy=0;entryX=0;entryY=0.5;entryDx=0;entryDy=0;endSize=3;startSize=3;width=5;startWidth=10;endWidth=10;" edge="1" parent="1" source="bJIv3xZbIVNAvdQTSSaf-1" target="bJIv3xZbIVNAvdQTSSaf-48">
          <mxGeometry width="50" height="50" relative="1" as="geometry">
            <mxPoint x="360" y="200" as="sourcePoint" />
            <mxPoint x="710" y="180" as="targetPoint" />
          </mxGeometry>
        </mxCell>
        <mxCell id="bJIv3xZbIVNAvdQTSSaf-39" value="4" style="edgeLabel;html=1;align=center;verticalAlign=middle;resizable=0;points=[];" vertex="1" connectable="0" parent="bJIv3xZbIVNAvdQTSSaf-30">
          <mxGeometry relative="1" as="geometry">
            <mxPoint as="offset" />
          </mxGeometry>
        </mxCell>
        <mxCell id="bJIv3xZbIVNAvdQTSSaf-32" value="A" style="text;html=1;align=center;verticalAlign=middle;whiteSpace=wrap;rounded=0;" vertex="1" parent="1">
          <mxGeometry x="560" y="40" width="40" height="40" as="geometry" />
        </mxCell>
        <mxCell id="bJIv3xZbIVNAvdQTSSaf-33" value="output" style="text;html=1;align=center;verticalAlign=middle;whiteSpace=wrap;rounded=0;fontSize=8;" vertex="1" parent="1">
          <mxGeometry x="320" y="155" width="30" height="20" as="geometry" />
        </mxCell>
        <mxCell id="bJIv3xZbIVNAvdQTSSaf-37" value="B" style="text;html=1;align=center;verticalAlign=middle;whiteSpace=wrap;rounded=0;" vertex="1" parent="1">
          <mxGeometry x="640" y="40" width="40" height="40" as="geometry" />
        </mxCell>
        <mxCell id="bJIv3xZbIVNAvdQTSSaf-51" style="edgeStyle=orthogonalEdgeStyle;rounded=0;orthogonalLoop=1;jettySize=auto;html=1;exitX=0.5;exitY=0;exitDx=0;exitDy=0;entryX=0.5;entryY=1;entryDx=0;entryDy=0;" edge="1" parent="1" source="bJIv3xZbIVNAvdQTSSaf-40" target="bJIv3xZbIVNAvdQTSSaf-48">
          <mxGeometry relative="1" as="geometry" />
        </mxCell>
        <mxCell id="bJIv3xZbIVNAvdQTSSaf-70" style="edgeStyle=orthogonalEdgeStyle;rounded=0;orthogonalLoop=1;jettySize=auto;html=1;exitX=1;exitY=0.5;exitDx=0;exitDy=0;entryX=0;entryY=0.5;entryDx=0;entryDy=0;" edge="1" parent="1" source="bJIv3xZbIVNAvdQTSSaf-40" target="bJIv3xZbIVNAvdQTSSaf-56">
          <mxGeometry relative="1" as="geometry" />
        </mxCell>
        <mxCell id="bJIv3xZbIVNAvdQTSSaf-40" value="CONTROL UNIT" style="whiteSpace=wrap;html=1;aspect=fixed;" vertex="1" parent="1">
          <mxGeometry x="680" y="320" width="120" height="120" as="geometry" />
        </mxCell>
        <mxCell id="bJIv3xZbIVNAvdQTSSaf-41" value="" style="endArrow=classic;html=1;rounded=0;" edge="1" parent="1">
          <mxGeometry width="50" height="50" relative="1" as="geometry">
            <mxPoint x="560" y="359.72" as="sourcePoint" />
            <mxPoint x="680" y="360" as="targetPoint" />
          </mxGeometry>
        </mxCell>
        <mxCell id="bJIv3xZbIVNAvdQTSSaf-42" value="" style="endArrow=classic;html=1;rounded=0;" edge="1" parent="1">
          <mxGeometry width="50" height="50" relative="1" as="geometry">
            <mxPoint x="680" y="400" as="sourcePoint" />
            <mxPoint x="560" y="400" as="targetPoint" />
          </mxGeometry>
        </mxCell>
        <mxCell id="bJIv3xZbIVNAvdQTSSaf-43" value="req" style="text;html=1;align=left;verticalAlign=middle;whiteSpace=wrap;rounded=0;fontSize=8;" vertex="1" parent="1">
          <mxGeometry x="560" y="340" width="30" height="20" as="geometry" />
        </mxCell>
        <mxCell id="bJIv3xZbIVNAvdQTSSaf-44" value="ack" style="text;html=1;align=left;verticalAlign=middle;whiteSpace=wrap;rounded=0;fontSize=8;" vertex="1" parent="1">
          <mxGeometry x="560" y="380" width="30" height="20" as="geometry" />
        </mxCell>
        <mxCell id="bJIv3xZbIVNAvdQTSSaf-45" value="req" style="text;html=1;align=right;verticalAlign=middle;whiteSpace=wrap;rounded=0;fontSize=8;" vertex="1" parent="1">
          <mxGeometry x="650" y="340" width="30" height="20" as="geometry" />
        </mxCell>
        <mxCell id="bJIv3xZbIVNAvdQTSSaf-46" value="ack" style="text;html=1;align=right;verticalAlign=middle;whiteSpace=wrap;rounded=0;fontSize=8;" vertex="1" parent="1">
          <mxGeometry x="650" y="380" width="30" height="20" as="geometry" />
        </mxCell>
        <mxCell id="bJIv3xZbIVNAvdQTSSaf-47" value="data" style="text;html=1;align=center;verticalAlign=middle;whiteSpace=wrap;rounded=0;fontSize=8;" vertex="1" parent="1">
          <mxGeometry x="600" y="155" width="40" height="20" as="geometry" />
        </mxCell>
        <mxCell id="bJIv3xZbIVNAvdQTSSaf-48" value="BUFFER_4" style="rounded=0;whiteSpace=wrap;html=1;" vertex="1" parent="1">
          <mxGeometry x="700" y="160" width="80" height="40" as="geometry" />
        </mxCell>
        <mxCell id="bJIv3xZbIVNAvdQTSSaf-50" value="input" style="text;html=1;align=right;verticalAlign=middle;whiteSpace=wrap;rounded=0;fontSize=8;" vertex="1" parent="1">
          <mxGeometry x="660" y="155" width="40" height="20" as="geometry" />
        </mxCell>
        <mxCell id="bJIv3xZbIVNAvdQTSSaf-52" value="register_load" style="text;html=1;align=left;verticalAlign=middle;whiteSpace=wrap;rounded=0;fontSize=8;" vertex="1" parent="1">
          <mxGeometry x="800" y="380" width="50" height="20" as="geometry" />
        </mxCell>
        <mxCell id="bJIv3xZbIVNAvdQTSSaf-54" value="CARRY LOOKAHEAD ADDER" style="rounded=0;whiteSpace=wrap;html=1;" vertex="1" parent="1">
          <mxGeometry x="880" y="160" width="120" height="60" as="geometry" />
        </mxCell>
        <mxCell id="bJIv3xZbIVNAvdQTSSaf-56" value="REGISTER_4" style="rounded=0;whiteSpace=wrap;html=1;" vertex="1" parent="1">
          <mxGeometry x="880" y="280" width="120" height="40" as="geometry" />
        </mxCell>
        <mxCell id="bJIv3xZbIVNAvdQTSSaf-58" value="" style="shape=flexArrow;endArrow=classic;html=1;rounded=0;exitX=1;exitY=0.5;exitDx=0;exitDy=0;endSize=3;startSize=3;width=5;startWidth=10;endWidth=10;" edge="1" parent="1" source="bJIv3xZbIVNAvdQTSSaf-48">
          <mxGeometry width="50" height="50" relative="1" as="geometry">
            <mxPoint x="830" y="230" as="sourcePoint" />
            <mxPoint x="880" y="180" as="targetPoint" />
          </mxGeometry>
        </mxCell>
        <mxCell id="bJIv3xZbIVNAvdQTSSaf-59" value="4" style="edgeLabel;html=1;align=center;verticalAlign=middle;resizable=0;points=[];" vertex="1" connectable="0" parent="bJIv3xZbIVNAvdQTSSaf-58">
          <mxGeometry relative="1" as="geometry">
            <mxPoint as="offset" />
          </mxGeometry>
        </mxCell>
        <mxCell id="bJIv3xZbIVNAvdQTSSaf-60" value="" style="shape=flexArrow;endArrow=classic;html=1;rounded=0;exitX=0.5;exitY=1;exitDx=0;exitDy=0;entryX=0.5;entryY=0;entryDx=0;entryDy=0;endSize=3;startSize=3;width=5;startWidth=10;endWidth=10;" edge="1" parent="1" source="bJIv3xZbIVNAvdQTSSaf-54" target="bJIv3xZbIVNAvdQTSSaf-56">
          <mxGeometry width="50" height="50" relative="1" as="geometry">
            <mxPoint x="890" y="330" as="sourcePoint" />
            <mxPoint x="940" y="280" as="targetPoint" />
          </mxGeometry>
        </mxCell>
        <mxCell id="bJIv3xZbIVNAvdQTSSaf-62" value="4" style="edgeLabel;html=1;align=center;verticalAlign=middle;resizable=0;points=[];" vertex="1" connectable="0" parent="bJIv3xZbIVNAvdQTSSaf-60">
          <mxGeometry relative="1" as="geometry">
            <mxPoint as="offset" />
          </mxGeometry>
        </mxCell>
        <mxCell id="bJIv3xZbIVNAvdQTSSaf-61" value="" style="shape=flexArrow;endArrow=classic;html=1;rounded=0;exitX=0.5;exitY=1;exitDx=0;exitDy=0;entryX=0.5;entryY=0;entryDx=0;entryDy=0;endSize=3;startSize=3;strokeWidth=1;fillColor=none;width=5;startWidth=10;endWidth=10;" edge="1" parent="1" source="bJIv3xZbIVNAvdQTSSaf-56" target="bJIv3xZbIVNAvdQTSSaf-54">
          <mxGeometry width="50" height="50" relative="1" as="geometry">
            <mxPoint x="940" y="330" as="sourcePoint" />
            <mxPoint x="990" y="280" as="targetPoint" />
            <Array as="points">
              <mxPoint x="940" y="360" />
              <mxPoint x="1060" y="360" />
              <mxPoint x="1060" y="240" />
              <mxPoint x="1060" y="120" />
              <mxPoint x="940" y="120" />
            </Array>
          </mxGeometry>
        </mxCell>
        <mxCell id="bJIv3xZbIVNAvdQTSSaf-63" value="4" style="edgeLabel;html=1;align=center;verticalAlign=middle;resizable=0;points=[];" vertex="1" connectable="0" parent="bJIv3xZbIVNAvdQTSSaf-61">
          <mxGeometry relative="1" as="geometry">
            <mxPoint as="offset" />
          </mxGeometry>
        </mxCell>
        <mxCell id="bJIv3xZbIVNAvdQTSSaf-64" value="load" style="text;html=1;align=center;verticalAlign=middle;whiteSpace=wrap;rounded=0;fontSize=8;" vertex="1" parent="1">
          <mxGeometry x="740" y="200" width="40" height="20" as="geometry" />
        </mxCell>
        <mxCell id="bJIv3xZbIVNAvdQTSSaf-65" value="x" style="text;html=1;align=center;verticalAlign=middle;whiteSpace=wrap;rounded=0;fontSize=8;" vertex="1" parent="1">
          <mxGeometry x="850" y="180" width="30" height="20" as="geometry" />
        </mxCell>
        <mxCell id="bJIv3xZbIVNAvdQTSSaf-68" value="y" style="text;html=1;align=center;verticalAlign=middle;whiteSpace=wrap;rounded=0;fontSize=8;" vertex="1" parent="1">
          <mxGeometry x="910" y="140" width="30" height="20" as="geometry" />
        </mxCell>
        <mxCell id="bJIv3xZbIVNAvdQTSSaf-69" value="s" style="text;html=1;align=center;verticalAlign=middle;whiteSpace=wrap;rounded=0;fontSize=8;" vertex="1" parent="1">
          <mxGeometry x="940" y="220" width="30" height="20" as="geometry" />
        </mxCell>
        <mxCell id="bJIv3xZbIVNAvdQTSSaf-71" value="buffer_load" style="text;html=1;align=right;verticalAlign=middle;whiteSpace=wrap;rounded=0;fontSize=8;" vertex="1" parent="1">
          <mxGeometry x="690" y="300" width="50" height="20" as="geometry" />
        </mxCell>
        <mxCell id="bJIv3xZbIVNAvdQTSSaf-72" value="load" style="text;html=1;align=right;verticalAlign=middle;whiteSpace=wrap;rounded=0;fontSize=8;" vertex="1" parent="1">
          <mxGeometry x="840" y="280" width="40" height="20" as="geometry" />
        </mxCell>
        <mxCell id="bJIv3xZbIVNAvdQTSSaf-82" value="clock" style="text;html=1;align=center;verticalAlign=middle;whiteSpace=wrap;rounded=0;fontSize=8;" vertex="1" parent="1">
          <mxGeometry x="705" y="480" width="30" height="20" as="geometry" />
        </mxCell>
        <mxCell id="bJIv3xZbIVNAvdQTSSaf-83" value="" style="endArrow=classic;html=1;rounded=0;" edge="1" parent="1">
          <mxGeometry width="50" height="50" relative="1" as="geometry">
            <mxPoint x="720" y="480" as="sourcePoint" />
            <mxPoint x="720" y="440" as="targetPoint" />
          </mxGeometry>
        </mxCell>
        <mxCell id="bJIv3xZbIVNAvdQTSSaf-84" value="" style="endArrow=classic;html=1;rounded=0;" edge="1" parent="1">
          <mxGeometry width="50" height="50" relative="1" as="geometry">
            <mxPoint x="760" y="480" as="sourcePoint" />
            <mxPoint x="760" y="440" as="targetPoint" />
          </mxGeometry>
        </mxCell>
        <mxCell id="bJIv3xZbIVNAvdQTSSaf-85" value="reset" style="text;html=1;align=center;verticalAlign=middle;whiteSpace=wrap;rounded=0;fontSize=8;" vertex="1" parent="1">
          <mxGeometry x="745" y="480" width="30" height="20" as="geometry" />
        </mxCell>
        <mxCell id="bJIv3xZbIVNAvdQTSSaf-89" value="" style="endArrow=classic;html=1;rounded=0;" edge="1" parent="1">
          <mxGeometry width="50" height="50" relative="1" as="geometry">
            <mxPoint x="160" y="400" as="sourcePoint" />
            <mxPoint x="200" y="400" as="targetPoint" />
          </mxGeometry>
        </mxCell>
        <mxCell id="bJIv3xZbIVNAvdQTSSaf-90" value="clock" style="text;html=1;align=center;verticalAlign=middle;whiteSpace=wrap;rounded=0;fontSize=8;" vertex="1" parent="1">
          <mxGeometry x="160" y="380" width="30" height="20" as="geometry" />
        </mxCell>
        <mxCell id="bJIv3xZbIVNAvdQTSSaf-93" value="input" style="text;html=1;align=right;verticalAlign=middle;whiteSpace=wrap;rounded=0;fontSize=8;" vertex="1" parent="1">
          <mxGeometry x="880" y="260" width="50" height="20" as="geometry" />
        </mxCell>
        <mxCell id="bJIv3xZbIVNAvdQTSSaf-97" value="output" style="text;html=1;align=left;verticalAlign=middle;whiteSpace=wrap;rounded=0;fontSize=8;" vertex="1" parent="1">
          <mxGeometry x="780" y="160" width="40" height="20" as="geometry" />
        </mxCell>
        <mxCell id="bJIv3xZbIVNAvdQTSSaf-99" value="output" style="text;html=1;align=left;verticalAlign=middle;whiteSpace=wrap;rounded=0;fontSize=8;" vertex="1" parent="1">
          <mxGeometry x="950" y="320" width="40" height="20" as="geometry" />
        </mxCell>
        <mxCell id="bJIv3xZbIVNAvdQTSSaf-100" value="" style="endArrow=classic;html=1;rounded=0;entryX=0.5;entryY=0;entryDx=0;entryDy=0;" edge="1" parent="1" target="bJIv3xZbIVNAvdQTSSaf-48">
          <mxGeometry width="50" height="50" relative="1" as="geometry">
            <mxPoint x="740" y="120" as="sourcePoint" />
            <mxPoint x="790" y="70" as="targetPoint" />
          </mxGeometry>
        </mxCell>
        <mxCell id="bJIv3xZbIVNAvdQTSSaf-101" value="clock" style="text;html=1;align=center;verticalAlign=middle;whiteSpace=wrap;rounded=0;fontSize=8;" vertex="1" parent="1">
          <mxGeometry x="725" y="100" width="30" height="20" as="geometry" />
        </mxCell>
        <mxCell id="bJIv3xZbIVNAvdQTSSaf-104" value="" style="endArrow=classic;html=1;rounded=0;entryX=1;entryY=0.5;entryDx=0;entryDy=0;" edge="1" parent="1" target="bJIv3xZbIVNAvdQTSSaf-56">
          <mxGeometry width="50" height="50" relative="1" as="geometry">
            <mxPoint x="1040" y="300" as="sourcePoint" />
            <mxPoint x="1090" y="250" as="targetPoint" />
          </mxGeometry>
        </mxCell>
        <mxCell id="bJIv3xZbIVNAvdQTSSaf-105" value="clock" style="text;html=1;align=left;verticalAlign=middle;whiteSpace=wrap;rounded=0;fontSize=8;" vertex="1" parent="1">
          <mxGeometry x="1000" y="280" width="30" height="20" as="geometry" />
        </mxCell>
        <mxCell id="bJIv3xZbIVNAvdQTSSaf-106" value="" style="endArrow=classic;html=1;rounded=0;" edge="1" parent="1">
          <mxGeometry width="50" height="50" relative="1" as="geometry">
            <mxPoint x="900" y="360" as="sourcePoint" />
            <mxPoint x="900" y="320" as="targetPoint" />
          </mxGeometry>
        </mxCell>
        <mxCell id="bJIv3xZbIVNAvdQTSSaf-107" value="reset" style="text;html=1;align=center;verticalAlign=middle;whiteSpace=wrap;rounded=0;fontSize=8;" vertex="1" parent="1">
          <mxGeometry x="885" y="360" width="30" height="20" as="geometry" />
        </mxCell>
        <mxCell id="bJIv3xZbIVNAvdQTSSaf-108" value="" style="endArrow=classic;html=1;rounded=0;" edge="1" parent="1">
          <mxGeometry width="50" height="50" relative="1" as="geometry">
            <mxPoint x="80" y="280" as="sourcePoint" />
            <mxPoint x="120" y="280" as="targetPoint" />
          </mxGeometry>
        </mxCell>
        <mxCell id="bJIv3xZbIVNAvdQTSSaf-109" value="" style="endArrow=classic;html=1;rounded=0;" edge="1" parent="1">
          <mxGeometry width="50" height="50" relative="1" as="geometry">
            <mxPoint x="80" y="240" as="sourcePoint" />
            <mxPoint x="120" y="240" as="targetPoint" />
          </mxGeometry>
        </mxCell>
        <mxCell id="bJIv3xZbIVNAvdQTSSaf-110" value="" style="endArrow=classic;html=1;rounded=0;" edge="1" parent="1">
          <mxGeometry width="50" height="50" relative="1" as="geometry">
            <mxPoint x="80" y="319.6" as="sourcePoint" />
            <mxPoint x="120" y="319.6" as="targetPoint" />
          </mxGeometry>
        </mxCell>
        <mxCell id="bJIv3xZbIVNAvdQTSSaf-111" value="clock_A" style="text;html=1;align=right;verticalAlign=middle;whiteSpace=wrap;rounded=0;fontSize=8;" vertex="1" parent="1">
          <mxGeometry x="80" y="220" width="40" height="20" as="geometry" />
        </mxCell>
        <mxCell id="bJIv3xZbIVNAvdQTSSaf-113" value="reset" style="text;html=1;align=right;verticalAlign=middle;whiteSpace=wrap;rounded=0;fontSize=8;" vertex="1" parent="1">
          <mxGeometry x="80" y="260" width="40" height="20" as="geometry" />
        </mxCell>
        <mxCell id="bJIv3xZbIVNAvdQTSSaf-114" value="start" style="text;html=1;align=right;verticalAlign=middle;whiteSpace=wrap;rounded=0;fontSize=8;" vertex="1" parent="1">
          <mxGeometry x="80" y="300" width="40" height="20" as="geometry" />
        </mxCell>
        <mxCell id="bJIv3xZbIVNAvdQTSSaf-115" value="" style="endArrow=classic;html=1;rounded=0;" edge="1" parent="1">
          <mxGeometry width="50" height="50" relative="1" as="geometry">
            <mxPoint x="1160" y="259.31" as="sourcePoint" />
            <mxPoint x="1120" y="259.31" as="targetPoint" />
          </mxGeometry>
        </mxCell>
        <mxCell id="bJIv3xZbIVNAvdQTSSaf-116" value="clock_B" style="text;html=1;align=left;verticalAlign=middle;whiteSpace=wrap;rounded=0;fontSize=8;" vertex="1" parent="1">
          <mxGeometry x="1120" y="240" width="40" height="20" as="geometry" />
        </mxCell>
        <mxCell id="bJIv3xZbIVNAvdQTSSaf-117" value="" style="endArrow=classic;html=1;rounded=0;" edge="1" parent="1">
          <mxGeometry width="50" height="50" relative="1" as="geometry">
            <mxPoint x="1160" y="300" as="sourcePoint" />
            <mxPoint x="1120" y="300" as="targetPoint" />
          </mxGeometry>
        </mxCell>
        <mxCell id="bJIv3xZbIVNAvdQTSSaf-118" value="reset" style="text;html=1;align=left;verticalAlign=middle;whiteSpace=wrap;rounded=0;fontSize=8;" vertex="1" parent="1">
          <mxGeometry x="1120" y="280" width="40" height="20" as="geometry" />
        </mxCell>
      </root>
    </mxGraphModel>
  </diagram>
</mxfile>
